# xmcd
# 
# Track frame offsets:
#     150
#     17367
#     35734
#     52811
#     76027
#     91558
#     108713
#     122798
#     139063
#     155219
#     172988
#     189029
# 
# Disc length: 2796
# 
# Revision: 3
# Processed by: cddbd v1.5.2PL0 Copyright (c) Steve Scherf et al.
# Submitted via: fre:ac v1.0.31
# 
DISCID=880aea0c
DTITLE=Shaila Durcal - Recordando...
DYEAR=2006
DGENRE=Ranchera
TTITLE0=No Sirvo Para Estar Sin Ti
TTITLE1=Volver A Verte
TTITLE2=Déjame Vivir
TTITLE3=Amor Eterno
TTITLE4=Si Yo Tuviera Rosas
TTITLE5=Como Tu Mujer
TTITLE6=Jamás Me Cansaré De Ti
TTITLE7=Por Ti (Inédito)
TTITLE8=Tarde
TTITLE9=No Lastimes Más
TTITLE10=Vuélvete La Luna (Inédito)
TTITLE11=Costumbres
EXTD=
EXTT0=
EXTT1=
EXTT2=
EXTT3=
EXTT4=
EXTT5=
EXTT6=
EXTT7=
EXTT8=
EXTT9=
EXTT10=
EXTT11=
PLAYORDER=
